<svg width="58" height="43" viewBox="0 0 58 43" fill="none" xmlns="http://www.w3.org/2000/svg">
<path d="M28.2968 42.0983C27.9343 41.9215 20.5329 36.6777 10.5671 29.5328C9.10804 28.4893 7.29527 27.1983 6.54364 26.6677C3.12149 24.236 0.468666 22.3259 0.238754 22.1137C0.0088425 21.9015 0 21.8484 0 21.0703V20.2567L0.380239 19.9561C0.698578 19.6996 2.812 18.1698 3.42215 17.7631C3.52826 17.6923 4.06767 17.3121 4.61592 16.9142C5.16417 16.5162 5.81853 16.0564 6.05729 15.8884C6.30489 15.7204 7.79047 14.6593 9.37332 13.5274C12.6628 11.1841 12.4064 11.3697 15.3864 9.25633C16.6244 8.37205 18.3752 7.13407 19.2772 6.49739C20.1792 5.85187 21.0015 5.27709 21.0988 5.20635C21.2049 5.13561 22.045 4.54314 22.9558 3.88878C23.8754 3.23441 24.8305 2.56236 25.0692 2.39435C25.3168 2.2175 26.148 1.62503 26.9174 1.06794C28.288 0.0863923 28.3499 0.0510192 28.8628 0.0156482C29.5436 -0.0374084 29.6586 0.00680754 30.6844 0.758442C31.5067 1.35975 36.9097 5.1975 42.7105 9.30939C47.9985 13.0499 56.629 19.1956 57.2834 19.6908C57.6371 19.9561 57.9466 20.2567 57.9731 20.3628C57.9996 20.4601 58.0085 20.8669 57.9908 21.256L57.9643 21.9634L57.0977 22.6796C56.629 23.0776 56.1073 23.4666 55.9481 23.5462C55.7801 23.617 55.4087 23.8734 55.1081 24.1033C54.8074 24.3332 54.3918 24.6427 54.1884 24.7754C53.9762 24.908 53.5694 25.1998 53.2776 25.412C52.4906 25.9957 52.0838 26.2786 51.8097 26.4467C51.6771 26.5262 51.173 26.8888 50.6955 27.2425C50.218 27.5962 49.6698 27.9853 49.4752 28.1179C49.2807 28.2417 48.9093 28.5335 48.644 28.7546C48.3787 28.9845 48.1311 29.1702 48.0869 29.1702C48.0162 29.1702 47.3176 29.6477 46.1503 30.4789C45.7878 30.7442 44.5233 31.6462 43.3295 32.4951C42.1357 33.3528 41.0481 34.1575 40.8978 34.2902C40.7563 34.4228 40.4026 34.6616 40.1284 34.8207C39.8543 34.9711 39.4299 35.2806 39.1911 35.4928C38.9435 35.7139 38.7047 35.8907 38.6428 35.8907C38.5809 35.8907 38.298 36.0764 38.015 36.3152C37.1661 36.9961 36.9804 37.1287 36.892 37.1287C36.8389 37.1287 36.4852 37.3586 36.0961 37.6504C35.7159 37.9334 35.3091 38.2164 35.1942 38.2783C35.0792 38.3402 34.8316 38.5347 34.6282 38.7204C34.4249 38.9061 34.1419 39.1272 33.9916 39.2156C33.346 39.5958 32.4794 40.2325 32.1965 40.5155C32.0373 40.6923 31.7986 40.8515 31.6748 40.8869C31.5421 40.9222 31.0558 41.2406 30.5783 41.6031C29.7117 42.2575 29.7117 42.2575 29.1546 42.2575C28.8009 42.2575 28.4914 42.2044 28.2968 42.0983ZM28.1553 35.6077C27.8724 33.176 27.05 30.9034 25.7501 28.9049C23.6455 25.6596 20.2145 23.2102 16.536 22.3348C15.634 22.1137 14.0777 21.8749 14.0069 21.9457C13.9892 21.9634 14.0158 22.3082 14.06 22.7238C14.8735 29.5151 19.737 34.7146 26.3956 35.8996C26.882 35.9791 27.4921 36.0587 27.7486 36.0587L28.2172 36.0676L28.1553 35.6077ZM32.3291 35.7581C36.3614 34.8561 39.7128 32.4509 41.8793 28.9049C42.8874 27.2425 43.6036 25.2617 43.8512 23.3782C43.9043 22.9891 43.975 22.5116 43.9927 22.3259L44.0458 21.9811L43.2941 22.0341C42.8785 22.0606 42.4541 22.1402 42.3391 22.211C42.2242 22.2817 41.8793 22.3701 41.561 22.3967C41.2426 22.432 40.7297 22.5382 40.4114 22.6443C39.6421 22.8919 38.13 23.5639 37.8028 23.8115C37.6613 23.9176 37.396 24.0768 37.228 24.1652C36.5117 24.5278 36.1138 24.8107 34.92 25.8365C32.2849 28.1091 30.2864 31.8319 29.9327 35.1391C29.9062 35.4309 29.862 35.7669 29.8355 35.8819L29.7912 36.0941L30.534 36.041C30.9496 36.0145 31.7543 35.8819 32.3291 35.7581ZM15.8727 20.0533C18.0215 19.6377 20.0023 18.7623 21.9035 17.4005C23.0354 16.5958 24.7597 14.8184 25.529 13.6866C26.9969 11.5289 27.9431 9.02642 28.1553 6.7273C28.1996 6.24979 28.1907 6.17905 28.0492 6.17905C27.7839 6.17905 26.1392 6.43549 25.8208 6.52392C25.6528 6.57697 25.1576 6.70077 24.7155 6.79804C24.2822 6.90416 23.7605 7.04564 23.5659 7.12523C22.8851 7.39051 21.1872 8.2571 20.8424 8.52238C20.6478 8.67271 20.356 8.86725 20.2057 8.96452C19.737 9.25633 19.0119 9.89301 18.1188 10.795C16.3237 12.5901 14.9 15.2606 14.3341 17.8869C14.1396 18.7711 13.9627 20.1418 14.0335 20.2567C14.0777 20.3363 14.8028 20.2567 15.8727 20.0533ZM43.9662 19.8323C43.7893 17.0291 42.5425 13.9076 40.6678 11.6173C38.4041 8.83188 35.1146 6.913 31.6129 6.31169C30.8347 6.17905 29.9593 6.13484 29.8708 6.22326C29.8531 6.24979 29.862 6.55045 29.9062 6.90416C30.5517 12.6166 34.6548 17.6127 40.3053 19.567C41.3753 19.9384 43.4622 20.354 43.9043 20.2832C43.9573 20.2744 43.9839 20.0799 43.9662 19.8323Z" fill="black"/>
</svg>
